<?xml version="1.0" encoding="UTF-8"?>
<!DOCTYPE svg PUBLIC "-//W3C//DTD SVG 1.1//EN" "http://www.w3.org/Graphics/SVG/1.1/DTD/svg11.dtd">
<!-- Creator: CorelDRAW X7 -->
<svg xmlns="http://www.w3.org/2000/svg" xml:space="preserve" width="329.4mm" height="89.4mm" version="1.1" style="shape-rendering:geometricPrecision; text-rendering:geometricPrecision; image-rendering:optimizeQuality; fill-rule:evenodd; clip-rule:evenodd"
viewBox="0 0 32940 8940"
 xmlns:xlink="http://www.w3.org/1999/xlink">
 <defs>
  <style type="text/css">
   <![CDATA[
    .fil2 {fill:#528C19}
    .fil1 {fill:#8C7432}
    .fil0 {fill:#C5A95F}
   ]]>
  </style>
 </defs>
 <g id="Capa_x0020_1">
  <metadata id="CorelCorpID_0Corel-Layer"/>
  <g id="_361237448">
   <path class="fil0" d="M3585 7434l20 -84c2,-12 6,-27 8,-42l68 -450c30,-178 55,-367 89,-533 -65,-57 -264,-97 -395,-184 -344,-228 -885,-511 -1099,-736 -218,-227 -343,-332 -514,-678 -103,-211 -328,-682 -236,-923 332,49 507,830 894,1287 116,138 415,425 546,521 309,225 335,256 789,330l267 -1918c-129,-114 -333,-208 -478,-312 -225,-161 -727,-548 -840,-782 -83,-169 -135,-513 -26,-688 246,88 149,616 1186,1178 24,-332 33,-1800 135,-2086 54,-151 59,-140 175,-169l-62 1937c287,-75 557,-328 710,-475 78,-75 202,-211 281,-315l262 -349c116,154 9,332 -80,488 -376,656 -641,731 -893,1017 60,422 173,521 95,1040 -55,369 -207,605 -263,909 588,-426 1445,-1128 1896,-1706 100,-128 182,-181 293,-304 113,-126 172,-258 359,-286 111,211 -16,311 -206,568l-348 545c-65,129 -87,112 -214,215l-1698 1372c-192,148 -131,203 -198,704 -31,240 -87,561 -95,807 636,-27 1103,-187 1592,-427 304,-149 1059,-592 1235,-767 506,-502 -322,-469 526,-1308 118,-116 441,-329 365,-612 -55,-200 -365,-368 -511,-515 165,-363 223,-571 -24,-907l-509 4c-278,-273 -258,-739 -579,-885 -496,-225 -585,-172 -819,-673 -262,-561 -540,-118 -1111,-384 -505,-235 -302,-627 -538,-954 -337,271 -48,500 -627,872 -138,88 -374,186 -483,284 -191,172 -128,363 -220,590l-586 19c-607,1388 -475,605 -924,941 -117,88 -284,410 -331,611 -87,373 5,525 74,839 -126,-54 -161,-69 -336,-70 -417,608 213,659 249,1106 36,441 -606,186 392,1098 241,221 1296,824 1634,968 679,289 828,173 963,200 168,34 31,-74 140,72z"/>
   <path class="fil1" d="M3585 7434l-254 1490 453 1c131,-433 115,-1110 229,-1593 8,-246 64,-567 95,-807 67,-501 6,-556 198,-704l1698 -1372c127,-103 149,-86 214,-215l348 -545c190,-257 317,-357 206,-568 -187,28 -246,160 -359,286 -111,123 -193,176 -293,304 -451,578 -1308,1280 -1896,1706 56,-304 208,-540 263,-909 78,-519 -35,-618 -95,-1040 252,-286 517,-361 893,-1017 89,-156 196,-334 80,-488l-262 349c-79,104 -203,240 -281,315 -153,147 -423,400 -710,475l62 -1937c-116,29 -121,18 -175,169 -102,286 -111,1754 -135,2086 -1037,-562 -940,-1090 -1186,-1178 -109,175 -57,519 26,688 113,234 615,621 840,782 145,104 349,198 478,312l-267 1918c-454,-74 -480,-105 -789,-330 -131,-96 -430,-383 -546,-521 -387,-457 -562,-1238 -894,-1287 -92,241 133,712 236,923 171,346 296,451 514,678 214,225 755,508 1099,736 131,87 330,127 395,184 -34,166 -59,355 -89,533l-68 450c-2,15 -6,30 -8,42l-20 84z"/>
   <path class="fil2" d="M8691 5302c201,0 288,-12 452,-60l401 -153c908,0 676,1492 0,1492 -736,0 -853,42 -853,-1279zm-128 -2388c466,-224 1408,-100 1408,938 0,774 -552,1219 -1280,1279l-85 -1066c-22,-415 -43,-734 -43,-1151zm-213 -86l0 470 169 2688c2,211 31,221 44,382 6,9 13,13 15,28 70,418 1169,647 1557,51 144,-220 279,-617 185,-939 -133,-456 -239,-414 -605,-590 274,-409 732,-904 297,-1747 -256,-498 -912,-690 -1457,-479 -121,47 -131,59 -205,136z"/>
   <path class="fil2" d="M26433 4534c-521,0 -384,-54 -384,-1492 0,-245 735,-235 952,28 220,268 191,839 -27,1196l-200 183c-92,49 -197,85 -341,85zm-597 -1492l0 3497c0,164 16,196 170,213 114,-238 43,-1682 43,-2090 120,28 217,86 341,86 324,0 283,-99 584,55 1020,523 641,2003 738,2205 163,-44 141,-36 175,-209 99,-499 -33,-1184 -216,-1541 -283,-550 -595,-544 -727,-724 558,-149 664,-1876 -426,-1876 -265,0 -682,-1 -682,384z"/>
   <path class="fil2" d="M28224 3042c638,148 817,219 1249,797 303,404 542,924 542,1591 0,1132 -614,1160 -1493,1365 0,-283 -20,-644 -60,-921l-160 -1887c-28,-272 -78,-640 -78,-945zm2004 2345c0,-909 -505,-1683 -1120,-2206 -274,-232 -564,-310 -969,-310 -212,0 -121,405 -79,804 31,300 55,600 81,942l221 2299c65,154 156,83 367,45 949,-175 1499,-507 1499,-1574z"/>
   <path class="fil2" d="M18927 4833c0,-402 51,-1410 211,-1750 417,-884 864,8 892,305l91 1189c-261,22 -892,249 -1194,256zm-171 -555l42 1707c2,231 37,251 42,470 8,350 12,322 172,340 78,-164 -55,-1686 -85,-1749 408,-34 833,-247 1236,-256 0,377 45,579 43,938 -1,283 -56,732 43,939 197,-22 170,-86 170,-342 0,-479 -118,-2909 -283,-3298 -227,-535 -885,-887 -1234,118 -85,246 -146,814 -146,1133z"/>
   <path class="fil2" d="M21827 6965c130,-87 87,-34 140,-201l1054 -4064c0,-87 -88,-78 -171,-85 -36,155 -87,305 -128,469 -91,370 -780,3108 -879,3300 -3,6 -10,18 -16,27l-806 -3076c-52,-175 -83,-339 -130,-511 -47,-170 -385,-570 -70,541 52,183 88,311 136,504 93,376 185,696 273,1049 89,362 180,677 273,1049 51,208 149,871 324,998z"/>
   <path class="fil2" d="M11975 6581c-710,0 -1097,-767 -1149,-1325 -87,-957 265,-1928 168,-2129 -192,51 -167,116 -204,307 -135,700 -180,866 -180,1612 0,749 512,1706 1237,1706 836,0 1075,-174 1263,-1467 51,-354 -67,-1305 -68,-1690 -1,-258 -25,-356 -129,-511 -175,117 -101,126 -87,383 32,574 96,1130 89,1709 -4,347 -173,1142 -442,1306 -83,50 -378,99 -498,99z"/>
   <path class="fil2" d="M23362 4321c0,644 -29,1194 155,1807 194,648 278,667 911,667 212,0 367,-41 521,-76 226,-52 321,-22 375,-223 -156,-130 -384,85 -853,85 -600,0 -625,44 -777,-545 -65,-250 -119,-527 -119,-862l1066 0c96,0 94,-34 171,-85 -44,-67 -57,-128 -171,-128l-1066 0c0,-669 -84,-1251 393,-1698 395,-370 694,-206 972,-392 -73,-109 -58,-137 -242,-121 -765,63 -1336,713 -1336,1571z"/>
   <path class="fil2" d="M13980 3553c0,793 976,656 1204,1653 101,442 105,836 -189,1111 -161,150 -722,435 -1015,435 -184,0 -263,-99 -348,-208 -362,-466 -369,190 185,373 232,77 486,-7 689,-107 481,-236 778,-304 926,-866 138,-525 -144,-1243 -546,-1592 -104,-90 -693,-415 -693,-671 0,-534 34,-615 1237,-895 -7,-83 2,-171 -86,-171 -254,0 -1013,253 -1229,477 -107,110 -135,254 -135,461z"/>
   <path class="fil2" d="M30612 6027c0,1071 835,1121 1594,784 187,-83 137,-26 155,-187 -224,-103 -314,171 -939,171 -158,0 -406,-71 -477,-163 -216,-278 -77,-1224 -77,-1501 196,-45 330,-93 537,-145 157,-39 454,-81 476,-207 36,-206 -309,-43 -434,-7 -173,50 -407,84 -536,146 0,-686 184,-1172 772,-1403 230,-90 405,-36 464,-260 -180,-151 -746,165 -860,249 -193,142 -393,345 -463,602 -110,400 -212,1415 -212,1921z"/>
   <path class="fil2" d="M15899 4534c0,551 0,970 212,1451 96,215 435,682 641,682l1108 0c121,0 79,-19 128,-86 -206,-281 -1016,158 -1436,-269 -491,-500 -440,-1222 -440,-1863 0,-751 509,-1621 1493,-1621 235,0 47,97 255,0 -23,-217 -115,-170 -511,-170 -786,0 -1450,1030 -1450,1876z"/>
  </g>
 </g>
</svg>
