<?xml version="1.0" encoding="UTF-8"?>
<!DOCTYPE svg PUBLIC "-//W3C//DTD SVG 1.1//EN" "http://www.w3.org/Graphics/SVG/1.1/DTD/svg11.dtd">
<!-- Creator: CorelDRAW X7 -->
<svg xmlns="http://www.w3.org/2000/svg" xml:space="preserve" width="100%" height="100%" version="1.1" style="shape-rendering:geometricPrecision; text-rendering:geometricPrecision; image-rendering:optimizeQuality; fill-rule:evenodd; clip-rule:evenodd"
viewBox="0 0 21590 27940"
 xmlns:xlink="http://www.w3.org/1999/xlink">
 <defs>
  <style type="text/css">
   <![CDATA[
    .fil2 {fill:#CB6464}
    .fil0 {fill:#CBCB98}
    .fil1 {fill:#FECB32}
   ]]>
  </style>
 </defs>
 <g id="Capa_x0020_1">
  <metadata id="CorelCorpID_0Corel-Layer"/>
  <g id="_329434592">
   <path class="fil0" d="M191 311l0 8467c1285,0 2602,28 3883,3 246,-5 302,-135 537,-416 139,-166 334,-338 492,-496l1659 -1728c107,-106 136,-159 229,-264 288,-327 256,-97 255,-697l0 -4869 -7055 0z"/>
   <path class="fil1" d="M4742 9483l0 1200c298,0 522,-55 810,-72 430,-25 549,-282 1015,-748 85,-85 148,-143 230,-229 93,-96 115,-152 211,-248l1323 -1322c91,-91 146,-141 221,-239 74,-96 147,-151 211,-247 -204,-137 -344,-363 -519,-538 -151,-150 -435,-400 -539,-555 -161,108 -2238,2220 -2602,2584 -80,80 -361,305 -361,414z"/>
   <path class="fil2" d="M7811 6485l1014 1032c137,-42 644,-556 644,-644 0,-350 -122,-600 -343,-822 -81,-82 -201,-163 -315,-213 -162,-72 -256,-59 -471,-59 -54,203 -463,460 -529,706z"/>
  </g>
 </g>
</svg>
