<?xml version="1.0" encoding="UTF-8"?>
<!DOCTYPE svg PUBLIC "-//W3C//DTD SVG 1.1//EN" "http://www.w3.org/Graphics/SVG/1.1/DTD/svg11.dtd">
<!-- Creator: CorelDRAW X7 -->
<svg xmlns="http://www.w3.org/2000/svg" xml:space="preserve" width="365891mm" height="365891mm" version="1.1" style="shape-rendering:geometricPrecision; text-rendering:geometricPrecision; image-rendering:optimizeQuality; fill-rule:evenodd; clip-rule:evenodd"
viewBox="0 0 36589053 47350539"
 xmlns:xlink="http://www.w3.org/1999/xlink">
 <defs>
  <style type="text/css">
   <![CDATA[
    .fil2 {fill:#CB6464}
    .fil0 {fill:#CBCB98}
    .fil1 {fill:#FECB32}
   ]]>
  </style>
 </defs>
 <g id="Capa_x0020_1">
  <metadata id="CorelCorpID_0Corel-Layer"/>
  <g id="_331619528">
   <path class="fil0" d="M323489 527415l0 14348636c2178718,0 4409955,48046 6581453,5017 416105,-8254 511095,-228279 909422,-704818 235092,-281223 566478,-572257 834329,-839684l2810205 -2929243c181386,-179285 230618,-268800 388786,-448203 487911,-553412 434561,-163744 433019,-1181205l-17 -8250500 -11957197 0z"/>
   <path class="fil1" d="M8035881 16071780l0 2032717c504722,0 884883,-92650 1373454,-121189 727680,-42504 930758,-479132 1720465,-1268839 142950,-142950 249700,-241837 389820,-387396 156287,-162372 194741,-257564 356332,-420885l2243169 -2240778c154101,-153593 247531,-238838 373669,-403548 125681,-164167 249887,-256055 358688,-418528 -346842,-232262 -583476,-616625 -880968,-912608 -255479,-254192 -736746,-678143 -912607,-940757 -272681,182589 -3792230,3762334 -4409227,4379314 -136205,136222 -612795,517823 -612795,702497z"/>
   <path class="fil2" d="M13237255 10989969l1719109 1748478c231703,-70992 1090825,-941435 1090825,-1090841 0,-593424 -207214,-1016749 -580341,-1392588 -137594,-138594 -341147,-276494 -534905,-361891 -273680,-120630 -434408,-98887 -797892,-98887 -91922,344266 -785419,778590 -896796,1195729z"/>
  </g>
 </g>
</svg>
