<?xml version="1.0" encoding="UTF-8"?>
<!DOCTYPE svg PUBLIC "-//W3C//DTD SVG 1.1//EN" "http://www.w3.org/Graphics/SVG/1.1/DTD/svg11.dtd">
<!-- Creator: CorelDRAW X7 -->
<svg xmlns="http://www.w3.org/2000/svg" xml:space="preserve" width="215.9mm" height="279.4mm" version="1.1" style="shape-rendering:geometricPrecision; text-rendering:geometricPrecision; image-rendering:optimizeQuality; fill-rule:evenodd; clip-rule:evenodd"
viewBox="0 0 21590 27940"
 xmlns:xlink="http://www.w3.org/1999/xlink">
 <defs>
  <style type="text/css">
   <![CDATA[
    .fil0 {fill:#6D6D6D}
    .fil1 {fill:#CACACA}
   ]]>
  </style>
 </defs>
 <g id="Capa_x0020_1">
  <metadata id="CorelCorpID_0Corel-Layer"/>
  <g id="_324185840">
   <path class="fil0" d="M311 23338l9091 0c261,0 1549,-1440 1758,-1701 337,-422 1096,-1063 1725,-1815l2611 -2698c164,-164 285,-273 443,-442 89,-94 104,-131 182,-220 167,-187 13,-132 280,-203l0 -10860c0,-718 142,-1368 -242,-1368l-15848 0 0 19307z"/>
   <path class="fil0" d="M10689 25028l0 2655c749,0 1224,-97 1858,-154 894,-80 863,-114 1313,-697 386,-501 2310,-2338 3003,-3031l2997 -3117 -2414 -2494c-485,129 -5222,5182 -5933,5893 -183,183 -824,696 -824,945z"/>
   <path class="fil1" d="M17688 18109l2313 2353c498,-152 953,-989 1548,-1387 -158,-1901 -2070,-3246 -2830,-2267 -218,281 -963,1047 -1031,1301z"/>
  </g>
 </g>
</svg>
