<?xml version="1.0" encoding="UTF-8"?>
<!DOCTYPE svg PUBLIC "-//W3C//DTD SVG 1.1//EN" "http://www.w3.org/Graphics/SVG/1.1/DTD/svg11.dtd">
<!-- Creator: CorelDRAW X7 -->
<svg xmlns="http://www.w3.org/2000/svg" xml:space="preserve" width="215.9mm" height="279.4mm" version="1.1" style="shape-rendering:geometricPrecision; text-rendering:geometricPrecision; image-rendering:optimizeQuality; fill-rule:evenodd; clip-rule:evenodd"
viewBox="0 0 21590 27940"
 xmlns:xlink="http://www.w3.org/1999/xlink">
 <defs>
  <style type="text/css">
   <![CDATA[
    .fil2 {fill:#6D6D6D}
    .fil1 {fill:#6E6E6E}
    .fil0 {fill:#CCCCCC}
   ]]>
  </style>
 </defs>
 <g id="Capa_x0020_1">
  <metadata id="CorelCorpID_0Corel-Layer"/>
  <g id="_588473160">
   <path class="fil0" d="M1852 20632c0,2795 1126,2490 2923,2490l10933 0c722,0 1988,156 2521,-180 454,-286 943,-1148 943,-1877l0 -12016 -17320 0 0 11583z"/>
   <path class="fil1" d="M1852 9049l17320 0 0 12016c0,729 -489,1591 -943,1877 -533,336 -1799,180 -2521,180l-10933 0c-1797,0 -2923,305 -2923,-2490l0 -11583zm866 15588l15696 0c1410,0 2285,-978 2278,-2268 -3,-543 -4,-1086 -4,-1629 0,-1809 454,-14414 110,-15157 -210,-453 -1168,-1364 -1842,-1297l-1514 130c-38,416 -155,926 -368,1237 -1005,1465 -2193,403 -2340,-1367l-7902 0c-60,721 -472,1841 -1083,1841l-541 0c-597,0 -974,-1127 -974,-1841 -1897,0 -3127,-380 -3618,1579 -174,692 -142,13366 -167,15096 -14,967 -306,2848 980,3341 326,125 894,335 1289,335z"/>
   <path class="fil2" d="M4667 3745c0,570 -26,1949 866,1949 1086,0 1484,-3031 -109,-3031 -383,0 -757,671 -757,1082z"/>
   <path class="fil2" d="M15167 4178c0,186 163,818 229,962 161,352 305,378 637,554 876,-464 758,-885 758,-1841 0,-584 -366,-965 -866,-1082 -460,308 -758,787 -758,1407z"/>
  </g>
 </g>
</svg>
