<?xml version="1.0" encoding="UTF-8"?>
<!DOCTYPE svg PUBLIC "-//W3C//DTD SVG 1.1//EN" "http://www.w3.org/Graphics/SVG/1.1/DTD/svg11.dtd">
<!-- Creator: CorelDRAW X7 -->
<svg xmlns="http://www.w3.org/2000/svg" xml:space="preserve" width="279.4mm" height="215.9mm" version="1.1" style="shape-rendering:geometricPrecision; text-rendering:geometricPrecision; image-rendering:optimizeQuality; fill-rule:evenodd; clip-rule:evenodd"
viewBox="0 0 27940 21590"
 xmlns:xlink="http://www.w3.org/1999/xlink">
 <defs>
  <style type="text/css">
   <![CDATA[
    .fil0 {fill:#656565}
   ]]>
  </style>
 </defs>
 <g id="Capa_x0020_1">
  <metadata id="CorelCorpID_0Corel-Layer"/>
  <g id="_327643344">
   <path class="fil0" d="M6863 5127c0,2501 1644,4575 3719,5059l0 1339c-2239,50 -4361,1739 -5768,3159 -1267,1277 -2564,3864 -2564,6363 0,750 569,298 1191,298l18598 0c0,-3796 -1868,-7031 -4956,-8584 -1281,-644 -2071,-600 -3525,-939l0 -1636c1900,-443 3720,-2489 3720,-4315l0 -893c0,-4554 -7095,-6930 -9847,-1961 -300,542 -568,1303 -568,2110z"/>
   <path class="fil0" d="M16534 11525c963,510 1492,718 2341,1527 378,361 262,417 783,556 458,-307 713,-763 1040,-1192l3082 -3763c1344,-1657 1467,-2806 2072,-4624 157,-471 681,-1567 -46,-1537 -105,4 -5266,2963 -5644,3436l-3628 5597z"/>
  </g>
 </g>
</svg>
