<?xml version="1.0" encoding="UTF-8"?>
<!DOCTYPE svg PUBLIC "-//W3C//DTD SVG 1.1//EN" "http://www.w3.org/Graphics/SVG/1.1/DTD/svg11.dtd">
<!-- Creator: CorelDRAW X7 -->
<svg xmlns="http://www.w3.org/2000/svg" xml:space="preserve" width="279.4mm" height="215.9mm" version="1.1" style="shape-rendering:geometricPrecision; text-rendering:geometricPrecision; image-rendering:optimizeQuality; fill-rule:evenodd; clip-rule:evenodd"
viewBox="0 0 27940 21590"
 xmlns:xlink="http://www.w3.org/1999/xlink">
 <defs>
  <style type="text/css">
   <![CDATA[
    .fil0 {fill:#006598}
    .fil1 {fill:#006599}
   ]]>
  </style>
 </defs>
 <g id="Capa_x0020_1">
  <metadata id="CorelCorpID_0Corel-Layer"/>
  <g id="_402977000">
   <path class="fil0" d="M12548 2843c578,306 793,490 1328,880 923,672 9316,6542 9869,6690 -317,473 -8974,7123 -9462,7253 24,1072 706,1150 946,2050 653,-54 414,-60 846,-416l8251 -6572c615,-498 2690,-1890 2888,-2631 -532,-142 -1176,-679 -1672,-1009 -627,-418 -1076,-717 -1703,-1135l-6654 -4384c-636,-424 -2856,-2006 -3375,-2145 -245,164 -1083,1153 -1262,1419z"/>
   <polygon class="fil1" points="564,11832 19329,11832 19329,8836 564,8836 "/>
  </g>
 </g>
</svg>
