<?xml version="1.0" encoding="UTF-8"?>
<!DOCTYPE svg PUBLIC "-//W3C//DTD SVG 1.1//EN" "http://www.w3.org/Graphics/SVG/1.1/DTD/svg11.dtd">
<!-- Creator: CorelDRAW X7 -->
<svg xmlns="http://www.w3.org/2000/svg" xml:space="preserve" width="215.9mm" height="279.4mm" version="1.1" style="shape-rendering:geometricPrecision; text-rendering:geometricPrecision; image-rendering:optimizeQuality; fill-rule:evenodd; clip-rule:evenodd"
viewBox="0 0 21590 27940"
 xmlns:xlink="http://www.w3.org/1999/xlink">
 <defs>
  <style type="text/css">
   <![CDATA[
    .fil3 {fill:#333333}
    .fil1 {fill:#6E6E6E}
    .fil2 {fill:#989898}
    .fil0 {fill:#CCCCCC}
   ]]>
  </style>
 </defs>
 <g id="Capa_x0020_1">
  <metadata id="CorelCorpID_0Corel-Layer"/>
  <g id="_323100656">
   <path class="fil0" d="M6217 5484l-3387 3 -68 20084 15626 14 0 -20156 -3359 0 -14 1088c-678,61 -6251,13 -7421,13 -1679,0 -1366,291 -1377,-1046z"/>
   <path class="fil1" d="M600 26301c0,150 49,460 -55,536 98,235 107,321 266,520 465,579 789,375 2047,375l16025 0c692,2 861,0 1227,-370 227,-228 515,-640 601,-997l-10 -20771c0,-1148 318,-1828 -899,-2240 -450,-152 -4128,-72 -4772,-72l-1 2147 3359 0 0 20156 -15626 -14 68 -20084 3387 -3 -1 -2202c-1193,0 -2385,0 -3578,0 -763,-1 -1499,40 -1953,690 -239,342 -122,357 -88,744 73,836 3,5918 3,7211 0,4791 0,9583 0,14374z"/>
   <path class="fil2" d="M9852 2180c0,-842 1597,-1087 1597,55 0,859 -1597,770 -1597,-55zm392 -2037l572 0c955,130 1844,922 1844,2478 2686,0 2362,-229 2370,661l-1 2147 -14 1088c-678,61 -6251,13 -7421,13 -1679,0 -1366,291 -1377,-1046l-1 -2202 1 -606 2258 0c0,-1007 14,-1240 487,-1826 323,-400 789,-640 1282,-707z"/>
   <path class="fil3" d="M545 26837c104,-76 55,-386 55,-536l-107 59c-3,272 33,275 52,477z"/>
  </g>
 </g>
</svg>
