<?xml version="1.0" encoding="UTF-8"?>
<!DOCTYPE svg PUBLIC "-//W3C//DTD SVG 1.1//EN" "http://www.w3.org/Graphics/SVG/1.1/DTD/svg11.dtd">
<!-- Creator: CorelDRAW X7 -->
<svg xmlns="http://www.w3.org/2000/svg" xml:space="preserve" width="279.4mm" height="215.9mm" version="1.1" style="shape-rendering:geometricPrecision; text-rendering:geometricPrecision; image-rendering:optimizeQuality; fill-rule:evenodd; clip-rule:evenodd"
viewBox="0 0 27940 21590"
 xmlns:xlink="http://www.w3.org/1999/xlink">
 <defs>
  <style type="text/css">
   <![CDATA[
    .fil0 {fill:#84878C}
   ]]>
  </style>
 </defs>
 <g id="Capa_x0020_1">
  <metadata id="CorelCorpID_0Corel-Layer"/>
  <g id="_327373496">
   <path class="fil0" d="M4483 19907l20228 0c530,0 1375,633 2462,-1179 699,-1165 370,-10422 370,-12172 -910,76 -7283,3404 -8496,4046 163,608 1860,1961 2883,2984 555,555 958,962 1514,1520 329,330 368,365 754,661 595,457 505,117 715,903 -606,-162 -1339,-826 -1773,-1261l-4902 -4402c-877,204 -3486,1618 -4045,1618 -254,0 -2605,-1152 -3104,-1370 -1315,-572 -1853,601 -2708,1424 -499,481 -729,550 -1220,1005l-2323 2127c-577,606 -515,836 -1568,859l3082 -2986c609,-563 992,-777 1621,-1412 567,-572 1284,-896 1365,-1872 -979,-228 -3322,-1560 -4383,-2091 -1072,-536 -3314,-1928 -4517,-1955l335 10790c129,914 95,1103 541,1684 1290,1684 2571,1079 3169,1079z"/>
   <path class="fil0" d="M640 5950l13719 6136c199,-15 6161,-2824 6846,-3169l5098 -2387c1218,-476 1442,-551 1442,-1592 0,-2919 -2586,-2428 -4248,-2427 -2225,1 -4450,0 -6675,0 -4697,0 -8544,-405 -13148,-405 -2175,0 -3034,1888 -3034,3844z"/>
  </g>
 </g>
</svg>
