<?xml version="1.0" encoding="UTF-8"?>
<!DOCTYPE svg PUBLIC "-//W3C//DTD SVG 1.1//EN" "http://www.w3.org/Graphics/SVG/1.1/DTD/svg11.dtd">
<!-- Creator: CorelDRAW X7 -->
<svg xmlns="http://www.w3.org/2000/svg" xml:space="preserve" width="273.4mm" height="123.9mm" version="1.1" style="shape-rendering:geometricPrecision; text-rendering:geometricPrecision; image-rendering:optimizeQuality; fill-rule:evenodd; clip-rule:evenodd"
viewBox="0 0 27340 12390"
 xmlns:xlink="http://www.w3.org/1999/xlink">
 <defs>
  <style type="text/css">
   <![CDATA[
    .fil2 {fill:#009865}
    .fil1 {fill:#8C7433}
    .fil0 {fill:#C4A85F}
   ]]>
  </style>
 </defs>
 <g id="Capa_x0020_1">
  <metadata id="CorelCorpID_0Corel-Layer"/>
  <g id="_363899480">
   <path class="fil0" d="M5355 9995l219 -1420c-475,-30 -448,-127 -1030,-515 -663,-442 -1103,-676 -1485,-1548 -135,-306 -200,-522 -289,-833 -25,-88 -53,-170 -31,-256l21 -44c41,-96 254,218 308,304 506,801 124,698 1090,1731 388,416 705,727 1371,800l349 -2617c-86,-99 -463,-298 -595,-399 -293,-224 -880,-708 -1036,-1026 -89,-183 -194,-738 -49,-896 203,139 228,646 586,935l883 683c41,-539 -5,-1065 47,-1622l106 -1138c58,-251 103,-240 160,-261 100,192 -146,2099 -51,2588 389,-149 693,-408 907,-644 124,-136 243,-270 358,-430 67,-94 229,-419 331,-456 113,352 -583,1271 -847,1547 -141,148 -283,238 -437,391 78,492 255,615 124,1475 -76,498 -304,858 -377,1276l850 -737c156,-130 274,-258 429,-389 725,-611 609,-513 1185,-1243 138,-175 256,-277 384,-435 34,-42 343,-396 375,-372 206,155 -333,806 -511,1085 -35,53 -86,117 -109,164 -58,117 -12,151 -63,241l-906 793c-436,345 -1072,942 -1531,1319 -129,107 -92,111 -128,422 -52,447 -158,1170 -179,1558 1180,0 2264,-661 3178,-1322 227,-164 548,-358 591,-714 33,-266 -71,-383 -82,-550 -11,-180 504,-748 681,-914 71,-66 96,-104 156,-177 395,-479 -2,-694 -319,-1003 -74,-72 -111,-90 -190,-144 155,-293 271,-586 109,-989 -224,-556 -596,-10 -861,-322 -258,-303 -177,-900 -730,-1120 -234,-93 -635,-268 -744,-500 -39,-83 -52,-131 -90,-214 -218,-470 -172,-432 -444,-496 -279,-67 -1022,105 -1377,-504 -89,-151 -164,-521 -212,-728 -32,-138 -12,-158 -141,-193 -40,170 -213,413 -267,583 -127,404 -149,420 -724,762 -743,441 -457,571 -571,885 -78,214 -452,137 -774,137 -32,139 -261,507 -367,845 -160,506 -525,87 -808,437 -314,388 -480,859 -408,1362 34,240 82,318 127,510 -183,-48 9,-91 -425,-91 -178,336 -315,567 68,995 550,615 35,876 23,1008 -25,278 808,1060 1201,1317 98,63 168,100 261,163l1349 775c168,81 434,171 639,210 273,53 438,67 722,-39z"/>
   <path class="fil1" d="M5355 9995c-98,435 -186,1085 -267,1569 -21,128 -79,383 -82,525 549,0 521,59 554,-144l224 -1919c21,-388 127,-1111 179,-1558 36,-311 -1,-315 128,-422 459,-377 1095,-974 1531,-1319l906 -793c51,-90 5,-124 63,-241 23,-47 74,-111 109,-164 178,-279 717,-930 511,-1085 -32,-24 -341,330 -375,372 -128,158 -246,260 -384,435 -576,730 -460,632 -1185,1243 -155,131 -273,259 -429,389l-850 737c73,-418 301,-778 377,-1276 131,-860 -46,-983 -124,-1475 154,-153 296,-243 437,-391 264,-276 960,-1195 847,-1547 -102,37 -264,362 -331,456 -115,160 -234,294 -358,430 -214,236 -518,495 -907,644 -95,-489 151,-2396 51,-2588 -57,21 -102,10 -160,261l-106 1138c-52,557 -6,1083 -47,1622l-883 -683c-358,-289 -383,-796 -586,-935 -145,158 -40,713 49,896 156,318 743,802 1036,1026 132,101 509,300 595,399l-349 2617c-666,-73 -983,-384 -1371,-800 -966,-1033 -584,-930 -1090,-1731 -54,-86 -267,-400 -308,-304l-21 44c-22,86 6,168 31,256 89,311 154,527 289,833 382,872 822,1106 1485,1548 582,388 555,485 1030,515l-219 1420z"/>
   <path class="fil2" d="M10709 4505c173,0 209,-31 394,-31 476,0 792,-33 1214,181 674,342 446,1383 -288,1564 -154,39 -91,-29 -168,75 45,166 7,32 343,173 464,195 917,863 559,1336 -427,565 -899,549 -1543,437 -163,-29 -227,-34 -420,-34 32,-121 941,-1304 303,-2913 -55,-140 -111,-268 -183,-393 -87,-151 -196,-273 -211,-395zm-152 0c0,118 124,262 218,418 579,959 555,2260 -84,3174 -48,69 -152,149 -156,208 -11,130 69,52 447,52 436,0 1017,323 1659,-221 169,-143 403,-424 403,-719 0,-379 -397,-987 -849,-1092 6,-4 17,-17 20,-11 4,8 21,-12 39,-21 30,-16 42,-20 80,-41l334 -303c258,-376 319,-1035 -205,-1379 -510,-334 -1906,-329 -1906,-65z"/>
   <path class="fil2" d="M22084 7690c160,-43 124,-108 122,-304l86 -1278c31,-279 15,-562 36,-844 10,-131 55,-247 97,-358 91,-239 115,-189 630,-189 134,0 576,122 576,394 0,908 -1122,822 -1243,880 53,198 164,81 400,267 401,317 206,762 68,1111 -179,452 -281,342 -286,564 191,-5 268,-201 377,-442 153,-340 327,-829 84,-1172l-219 -237c249,-21 542,-178 690,-311 120,-109 461,-686 174,-917 -373,-301 -471,-289 -924,-289 -402,0 -391,145 -504,437 -116,298 -97,1468 -146,1795 -26,169 -64,796 -18,893z"/>
   <path class="fil2" d="M23783 7508l0 0zm0 0c40,-171 189,-377 261,-559 84,-213 138,-382 205,-613 216,-743 81,-853 -41,-1376 229,0 399,43 547,120 455,236 779,825 575,1306 -242,572 -970,1074 -1547,1122zm425 -1851c0,546 -463,1755 -630,1888 -137,109 -156,-13 -250,115 28,103 8,83 138,109 221,45 29,-25 347,-110 83,-23 127,-36 209,-64l381 -134c135,-57 221,-106 330,-186 686,-506 1164,-1284 454,-2020 -381,-395 -583,-417 -1070,-417 -120,0 -83,70 -57,141 84,223 148,407 148,678z"/>
   <path class="fil2" d="M17868 4990c356,0 378,-60 611,633 154,461 102,531 177,853l-1122 0 90 -1275c11,-145 96,-211 244,-211zm-516 2670c183,-20 95,-103 143,-464 14,-103 3,-192 10,-293 10,-117 29,-125 29,-275l1122 0 -27 762c-37,354 -94,202 -94,330 0,124 102,108 157,41 96,-120 116,-790 116,-981 0,-338 -216,-1942 -728,-1942 -181,0 -312,-7 -475,102 -204,135 -110,700 -175,1129 -42,279 -21,513 -52,797 -18,162 -87,666 -26,794z"/>
   <path class="fil2" d="M19688 7629l-91 0c-3,-124 -150,-601 -188,-752l-399 -1482c-119,-406 -105,-662 -293,-678 0,168 29,251 67,388l612 2270c27,105 74,300 110,376 264,61 274,61 498,-261 626,-903 224,-1598 603,-2308 56,-104 165,-257 240,-337 71,-75 94,-76 169,-136 103,-83 90,-67 67,-174 -208,17 -488,373 -577,546 -423,819 -116,1184 -375,1869 -57,148 -309,679 -443,679z"/>
   <path class="fil2" d="M13135 5020c0,582 55,1574 231,2106 300,907 666,299 765,-624 26,-240 141,-1234 66,-1391 -216,24 -81,217 -129,568 -51,370 -74,1531 -356,1738 -170,-46 -202,-277 -249,-479 -44,-185 -85,-445 -110,-649 -25,-205 -55,-465 -66,-662 -12,-223 50,-560 -30,-728 -69,18 -122,29 -122,121z"/>
   <path class="fil2" d="M14622 5142c-44,188 -147,497 -152,697 261,139 313,67 694,368 908,717 42,1471 -721,1205 -137,-48 -160,-93 -246,35 231,155 422,152 698,152 281,0 468,-179 615,-326 211,-210 254,-316 126,-657 -196,-520 -631,-684 -1014,-868 27,-115 44,-186 71,-323 39,-201 43,-152 579,-240 171,-28 246,3 260,-165 -358,0 -587,122 -910,122z"/>
   <path class="fil2" d="M20507 6780c0,384 256,849 516,849 419,0 557,55 576,-121 -103,-50 -304,-30 -457,-29 -249,3 -234,-26 -341,-174 -214,-293 -142,-496 -142,-798 507,0 568,53 606,-91 -78,-108 -295,-61 -576,-61 319,-1371 971,-1151 1001,-1426 -224,-107 -1183,526 -1183,1851z"/>
   <path class="fil2" d="M25725 6841c0,288 -58,736 184,907 128,92 344,153 392,-28 -371,-178 -425,312 -425,-1183 431,0 501,50 546,-121 -115,-55 -351,-31 -515,-31 108,-463 222,-946 637,-1184 210,-120 298,71 364,-211 -282,-189 -764,359 -887,570 -138,238 -296,900 -296,1281z"/>
   <path class="fil2" d="M15714 5900c0,1753 1360,1627 1416,1380 47,-204 -146,-15 -203,-15l-273 0c-478,0 -788,-659 -788,-1153 0,-588 98,-876 763,-995 139,-25 84,-4 177,-66 -50,-76 -29,-85 -138,-81 -15,1 -214,33 -238,39 -411,103 -716,417 -716,891z"/>
  </g>
 </g>
</svg>
