<?xml version="1.0" encoding="UTF-8"?>
<!DOCTYPE svg PUBLIC "-//W3C//DTD SVG 1.1//EN" "http://www.w3.org/Graphics/SVG/1.1/DTD/svg11.dtd">
<!-- Creator: CorelDRAW X7 -->
<svg xmlns="http://www.w3.org/2000/svg" xml:space="preserve" width="374.4mm" height="145.9mm" version="1.1" style="shape-rendering:geometricPrecision; text-rendering:geometricPrecision; image-rendering:optimizeQuality; fill-rule:evenodd; clip-rule:evenodd"
viewBox="0 0 37440 14590"
 xmlns:xlink="http://www.w3.org/1999/xlink">
 <defs>
  <style type="text/css">
   <![CDATA[
    .fil2 {fill:#009865}
    .fil1 {fill:#8C7433}
    .fil0 {fill:#C4A85F}
   ]]>
  </style>
 </defs>
 <g id="Capa_x0020_1">
  <metadata id="CorelCorpID_0Corel-Layer"/>
  <g id="_362778216">
   <path class="fil0" d="M5329 11595l282 -1647c-552,-44 -517,-156 -1187,-619 -470,-324 -592,-342 -999,-768 -569,-597 -805,-1238 -1018,-2034l-38 -269c48,-264 260,75 384,279 574,942 131,814 1235,2034 443,491 805,859 1579,956l455 -3036c-97,-117 -532,-356 -684,-475 -336,-266 -1010,-840 -1185,-1214 -100,-214 -211,-860 -40,-1041 234,164 253,755 664,1097l1014 811c57,-626 15,-1238 85,-1885l146 -1321c72,-290 124,-277 191,-299 112,224 -210,2437 -110,3007 456,-166 814,-461 1068,-731 147,-156 287,-309 424,-493 80,-108 275,-484 394,-524 103,341 -415,1064 -574,1270 -452,589 -519,538 -957,958 38,267 143,468 169,782 25,306 3,618 -46,910 -99,577 -351,977 -461,1480l2269 -1904 851 -1021c119,-134 594,-670 731,-691 -17,415 -76,400 -423,901l-385 571c-158,368 191,20 -426,564l-2514 2100c-152,122 -109,127 -157,488 -69,519 -207,1357 -238,1808 1169,19 2365,-562 3283,-1176 457,-306 1070,-628 1139,-1119 77,-545 -439,-563 548,-1513 418,-401 891,-825 208,-1364 -191,-150 -130,-160 -417,-359 186,-339 327,-677 146,-1149 -249,-650 -693,-23 -995,-390 -295,-358 -189,-1051 -828,-1317 -809,-337 -775,-455 -1080,-1106 -130,-276 -58,-243 -382,-326 -324,-83 -1191,103 -1592,-611 -100,-179 -180,-610 -232,-852 -35,-161 -11,-184 -160,-226 -50,197 -256,475 -322,672 -156,467 -181,486 -857,872 -871,499 -542,656 -680,1019 -95,247 -528,149 -903,143 -40,161 -313,585 -443,977 -195,584 -612,90 -948,491 -372,446 -574,991 -500,1577 35,279 89,371 137,596 -211,-61 13,-106 -492,-114 -213,387 -377,652 60,1157 627,726 24,1020 8,1172 -35,324 919,1248 1371,1555 112,76 193,119 300,195l1554 927c193,97 501,207 739,257 316,66 507,85 839,-32z"/>
   <path class="fil1" d="M5329 11595c-122,504 -237,1258 -340,1819 -27,149 -99,444 -106,609 639,10 605,79 647,-157l298 -2227c31,-451 169,-1289 238,-1808 48,-361 5,-366 157,-488l2514 -2100c617,-544 268,-196 426,-564l385 -571c347,-501 406,-486 423,-901 -137,21 -612,557 -731,691l-851 1021 -2269 1904c110,-503 362,-903 461,-1480 49,-292 71,-604 46,-910 -26,-314 -131,-515 -169,-782 438,-420 505,-369 957,-958 159,-206 677,-929 574,-1270 -119,40 -314,416 -394,524 -137,184 -277,337 -424,493 -254,270 -612,565 -1068,731 -100,-570 222,-2783 110,-3007 -67,22 -119,9 -191,299l-146 1321c-70,647 -28,1259 -85,1885l-1014 -811c-411,-342 -430,-933 -664,-1097 -171,181 -60,827 40,1041 175,374 849,948 1185,1214 152,119 587,358 684,475l-455 3036c-774,-97 -1136,-465 -1579,-956 -1104,-1220 -661,-1092 -1235,-2034 -124,-204 -336,-543 -384,-279l38 269c213,796 449,1437 1018,2034 407,426 529,444 999,768 670,463 635,575 1187,619l-282 1647z"/>
   <path class="fil2" d="M11685 3797c240,-110 919,-91 1237,-85 831,13 1970,330 1953,1373 -13,791 -388,1335 -1099,1519 -150,39 -194,17 -269,116 100,155 96,87 284,142 260,75 621,295 792,484 276,304 523,796 515,1306 -11,642 -1002,1324 -1574,1315 -1139,-19 -756,-154 -1867,-172 64,-116 97,-140 170,-255 63,-99 103,-172 156,-269 126,-235 167,-275 279,-573 463,-1235 420,-2367 24,-3608 -68,-216 -181,-475 -282,-664 -57,-105 -101,-189 -162,-294 -77,-132 -137,-159 -157,-335zm-175 -38c-4,227 172,439 347,740 828,1419 740,3451 -88,4837 -142,238 -400,537 -432,594 203,141 67,37 317,41l564 9c367,6 1673,587 2645,-531 494,-569 490,-904 263,-1518 -187,-505 -646,-1039 -1161,-1168l1 -70c822,-55 1730,-1986 446,-2757 -671,-403 -1687,-473 -2492,-362 -168,23 -408,21 -410,185z"/>
   <path class="fil2" d="M29591 9174c191,-48 137,-282 149,-564l178 -2076c15,-361 53,-1366 182,-1677 42,-101 65,-190 108,-284 54,-118 93,-118 208,-143 518,-109 1092,-28 1499,308 205,171 182,68 176,455 -7,445 -297,819 -649,1015 -668,372 -1094,163 -1349,328 157,243 1646,359 716,2211 -263,525 -183,359 -483,792l76 64c194,-41 382,-467 474,-643 942,-1799 -126,-2162 -255,-2345 793,-5 1633,-590 1648,-1525 5,-300 -98,-390 -441,-615 -363,-238 -627,-250 -1027,-256 -771,-13 -701,240 -863,650 -106,268 -95,312 -110,675 -7,175 -36,176 -43,350l-99 1477c-41,318 -167,1646 -95,1803z"/>
   <path class="fil2" d="M32943 4854c639,10 1008,196 1324,524 946,982 668,2122 -392,2914 -496,370 -652,430 -1250,610 -155,46 -344,105 -492,137 388,-559 1022,-2079 1038,-3017 6,-370 -112,-916 -228,-1168zm-174 -109c-6,369 803,1227 -606,3930 -369,709 -242,278 -632,531 117,181 80,88 281,75l-2 106c302,-21 -95,-77 505,-231 653,-169 993,-265 1546,-663 1323,-951 1616,-2309 341,-3399 -523,-446 -1431,-500 -1433,-349z"/>
   <path class="fil2" d="M22960 4724c478,8 696,-126 1006,1075 109,423 226,923 259,1416l-1834 -30 205 -2227c45,-165 -40,-42 79,-134 38,-29 205,-101 285,-100zm-847 4291c214,-46 130,-62 150,-312l125 -1377 1834 30c-5,317 -12,1363 -114,1605 -42,102 -281,252 47,334 432,-785 206,-2745 -34,-3507 -106,-336 -228,-866 -493,-1085 -286,-237 -745,-179 -1043,-8 -214,124 -185,400 -201,797 -9,209 -78,616 -87,986 -10,392 -260,2371 -184,2537z"/>
   <path class="fil2" d="M25888 9077l-247 -4c-224,-1039 -607,-2451 -867,-3535 -35,-148 -219,-1096 -326,-1177 -179,44 -105,76 5,550l919 3762c151,650 74,573 477,580 214,3 648,-814 739,-1031 567,-1354 114,-1879 633,-3004 143,-310 431,-649 698,-859 94,-74 104,-24 120,-127 40,-263 -448,202 -457,211 -1328,1417 -378,2457 -1321,4087 -124,215 -243,359 -373,547z"/>
   <path class="fil2" d="M15548 4919c-15,879 128,3848 783,3859 660,11 861,-3030 876,-3902l-141 -2 -190 2064c-69,447 -167,1171 -409,1551 -64,100 -26,81 -168,112 -538,-373 -584,-3093 -568,-4067l-141 -2c-3,179 -39,192 -42,387z"/>
   <path class="fil2" d="M17876 4958c-44,175 -80,330 -123,518 -35,150 -103,343 -106,537 144,79 306,130 465,209 600,302 1207,877 1225,1592 7,261 -602,898 -1205,888 -633,-10 -704,-188 -844,-190 -135,-3 -13,-11 -106,33 54,219 685,329 876,332 618,10 1421,-558 1430,-1105 4,-277 -109,-490 -200,-674 -52,-104 -91,-166 -165,-258 -75,-94 -120,-167 -206,-252 -370,-367 -653,-459 -1092,-678 23,-230 134,-585 190,-809 212,4 759,-109 1030,-155 180,-30 228,-6 245,-177l-1414 189z"/>
   <path class="fil2" d="M27110 7686c-10,637 463,1348 683,1352l882 15c100,1 66,-15 107,-69 -41,-167 -63,-108 -527,-115 -349,-5 -431,44 -575,-103 -564,-579 -358,-1104 -351,-1535l847 14c135,2 13,11 106,-34 -11,-121 -9,-111 -108,-138l-806 -18c136,-544 128,-824 567,-1387 428,-549 611,-524 965,-760 113,-76 78,-5 93,-155 -435,3 -1089,630 -1347,1048 -281,455 -527,1373 -536,1885z"/>
   <path class="fil2" d="M35363 7893c-14,855 -135,1585 679,1599 79,1 78,-27 142,-68 -125,-194 -70,-72 -210,-74 -428,-8 -443,-396 -446,-784 -2,-211 -52,-359 -16,-590 26,-164 29,-407 71,-573 350,5 666,60 847,-57 -120,-170 -413,-113 -809,-119 6,-383 324,-1197 543,-1484 144,-190 333,-370 547,-478 272,-138 123,55 318,-23 147,-60 179,-171 147,-318 -561,37 -1096,566 -1335,1024 -221,424 -468,1315 -478,1945z"/>
   <path class="fil2" d="M21167 8611c206,3 503,-39 573,-170 29,-53 53,-53 -1,-108 -77,-80 -78,-19 -130,8 -767,404 -1879,-310 -1850,-2047 14,-845 493,-1335 1259,-1389 167,-11 209,0 248,-138 -210,-123 -1388,5 -1616,1092 -204,969 194,2730 1517,2752z"/>
  </g>
 </g>
</svg>
