<?xml version="1.0" encoding="UTF-8"?>
<!DOCTYPE svg PUBLIC "-//W3C//DTD SVG 1.1//EN" "http://www.w3.org/Graphics/SVG/1.1/DTD/svg11.dtd">
<!-- Creator: CorelDRAW X7 -->
<svg xmlns="http://www.w3.org/2000/svg" xml:space="preserve" width="215.9mm" height="279.4mm" version="1.1" style="shape-rendering:geometricPrecision; text-rendering:geometricPrecision; image-rendering:optimizeQuality; fill-rule:evenodd; clip-rule:evenodd"
viewBox="0 0 21590 27940"
 xmlns:xlink="http://www.w3.org/1999/xlink">
 <defs>
  <style type="text/css">
   <![CDATA[
    .fil0 {fill:#75706E}
   ]]>
  </style>
 </defs>
 <g id="Capa_x0020_1">
  <metadata id="CorelCorpID_0Corel-Layer"/>
  <path class="fil0" d="M5654 9418l0 -917c0,-3590 5904,-5019 8483,-2798 3682,3172 594,7563 -2674,7563l-1499 0c-1985,0 -4310,-1860 -4310,-3848zm-5060 -917c0,4091 2510,9729 5201,12690 1525,1677 3259,2637 3965,4919 156,507 189,1037 391,1450 619,-162 592,-312 917,-753 272,-368 522,-682 799,-1051l6080 -8166c490,-697 1106,-1300 1484,-2030 1385,-2673 2595,-7861 523,-10598 -4281,-5656 -13231,-5773 -16597,-2005 -368,412 -544,673 -932,1104 -1112,1233 -1831,2651 -1831,4440z"/>
 </g>
</svg>
