<?xml version="1.0" encoding="UTF-8"?>
<!DOCTYPE svg PUBLIC "-//W3C//DTD SVG 1.1//EN" "http://www.w3.org/Graphics/SVG/1.1/DTD/svg11.dtd">
<!-- Creator: CorelDRAW X7 -->
<svg xmlns="http://www.w3.org/2000/svg" xml:space="preserve" width="215.9mm" height="279.4mm" version="1.1" style="shape-rendering:geometricPrecision; text-rendering:geometricPrecision; image-rendering:optimizeQuality; fill-rule:evenodd; clip-rule:evenodd"
viewBox="0 0 21590 27940"
 xmlns:xlink="http://www.w3.org/1999/xlink">
 <defs>
  <style type="text/css">
   <![CDATA[
    .fil0 {fill:#656565}
   ]]>
  </style>
 </defs>
 <g id="Capa_x0020_1">
  <metadata id="CorelCorpID_0Corel-Layer"/>
  <path class="fil0" d="M8867 11834l0 1361c-3576,834 -6323,2960 -7643,6262 -594,1488 -665,2020 -665,4022 4025,-335 13328,-154 17825,-151 537,0 2266,204 2266,-302 0,-4755 -3842,-9377 -8761,-9377 0,-2063 -108,-1613 637,-1933 2763,-1187 4100,-4285 2692,-6997 -2281,-4394 -9127,-3708 -10028,1626 -434,2571 1834,5335 3677,5489z"/>
 </g>
</svg>
